<svg xmlns="http://www.w3.org/2000/svg" width="644" height="296" viewBox="0 0 644 296"><g fill="#1D1D1B"><path d="M37.3 105.6h.6c5.9-12.4 20.7-24.4 43.6-24.4 39.9 0 54.2 28.2 54.2 58.5v93.8h-37.1v-75.2c0-16.4-1.2-43.6-27.2-43.6-24.4 0-34 17.9-34 37.7v81.1h-37.2v-234.1h37.1v106.2zM333.6 84.8h35.3v23.8h.6c6.8-14.9 20.7-27.5 45.5-27.5 39.9 0 54.2 28.2 54.2 58.5v93.8h-37.2v-75.2c0-16.4-1.2-43.6-27.2-43.6-24.4 0-34 17.9-34 37.7v81.1h-37.1v-148.6zM608.6 211.1h-.6c-10.8 17.9-30.3 26-51.1 26-45.8 0-73.3-34-73.3-78 0-43.9 29.4-78 71.8-78 27.8 0 42.7 13 50.4 22.6h.9v-104.3h37.1v233.9h-35.3v-22.2zm-44.3-7.4c27.2 0 43.6-21.4 43.6-44.6 0-23.2-16.4-44.6-43.6-44.6-27.2 0-43.6 21.4-43.6 44.6 0 23.2 16.4 44.6 43.6 44.6zM275.7 211.1h-.6c-10.8 17.9-30.3 26-51.1 26-45.8 0-73.3-34-73.3-78 0-43.9 29.4-78 71.8-78 27.8 0 42.7 13 50.4 22.6h.9v-18.9h37.1v148.5h-35.3v-22.2zm-44.3-7.4c27.2 0 43.6-21.4 43.6-44.6 0-23.2-16.4-44.6-43.6-44.6-27.2 0-43.6 21.4-43.6 44.6 0 23.2 16.4 44.6 43.6 44.6z"/></g><g fill="#1D1D1B"><path d="M117.4 275.1v-3.5h3.4v-4.7h4.1v4.7h4.5v3.5h-4.5v7.1c0 .8.2 1.5.5 1.9.3.5.9.7 1.8.7.4 0 .8 0 1.2-.1.4-.1.8-.2 1-.4v3.4c-.4.2-1 .3-1.6.4-.6.1-1.2.1-1.6.1-1.1 0-2-.1-2.7-.4-.7-.2-1.2-.6-1.6-1.1-.4-.5-.7-1.1-.8-1.8-.1-.7-.2-1.6-.2-2.5v-7.5h-3.5zM135.9 274c.4-.7.9-1.3 1.8-1.9s1.8-.8 3.1-.8c1.1 0 2 .2 2.8.5.8.4 1.4.8 1.9 1.4.5.6.8 1.3 1 2 .2.8.3 1.6.3 2.4v10.4h-4.1v-8.3c0-.5 0-1-.1-1.5 0-.6-.2-1.1-.4-1.6s-.5-.9-.9-1.2c-.4-.3-1-.5-1.7-.5s-1.3.1-1.7.3c-.5.2-.8.5-1.2.9-.3.4-.5.8-.7 1.3-.1.5-.2 1-.2 1.6v8.9h-4.1v-25.7h4.1v11.8zM153.3 281.3c.1 1.2.6 2.2 1.4 2.9.8.7 1.8 1 3 1 1 0 1.9-.2 2.6-.6.7-.4 1.3-.9 1.8-1.6l2.9 2.2c-1 1.2-2 2-3.2 2.5-1.2.5-2.4.7-3.7.7-1.2 0-2.4-.2-3.5-.6s-2-1-2.8-1.7c-.8-.7-1.4-1.6-1.9-2.7s-.7-2.2-.7-3.5.2-2.5.7-3.5c.5-1.1 1.1-2 1.9-2.7.8-.7 1.7-1.3 2.8-1.7s2.2-.6 3.5-.6c1.1 0 2.2.2 3.1.6.9.4 1.7 1 2.4 1.7s1.2 1.7 1.6 2.8.6 2.4.6 3.8v1.1h-12.5zm8.3-3.1c0-1.2-.4-2.1-1.1-2.8-.7-.7-1.7-1-3-1-1.2 0-2.2.4-2.9 1.1-.7.7-1.2 1.6-1.3 2.8h8.3zM177.4 279.8c0-1.3.2-2.5.7-3.5.5-1.1 1.1-2 1.9-2.7.8-.7 1.7-1.3 2.8-1.7s2.2-.6 3.5-.6 2.4.2 3.5.6 2 1 2.8 1.7c.8.7 1.4 1.6 1.9 2.7s.7 2.2.7 3.5-.2 2.5-.7 3.5c-.5 1.1-1.1 2-1.9 2.7-.8.7-1.7 1.3-2.8 1.7s-2.2.6-3.5.6-2.4-.2-3.5-.6-2-1-2.8-1.7c-.8-.7-1.4-1.6-1.9-2.7-.5-1-.7-2.2-.7-3.5zm4.1 0c0 .6.1 1.2.3 1.8.2.6.5 1.1 1 1.6.4.5.9.8 1.5 1.1.6.3 1.3.4 2 .4s1.4-.1 2-.4c.6-.3 1.1-.6 1.5-1.1.4-.5.7-1 1-1.6.2-.6.3-1.2.3-1.8 0-.6-.1-1.2-.3-1.8-.2-.6-.5-1.1-1-1.6-.4-.5-.9-.8-1.5-1.1-.6-.3-1.3-.4-2-.4s-1.4.1-2 .4c-.6.3-1.1.6-1.5 1.1-.4.5-.7 1-1 1.6-.2.6-.3 1.2-.3 1.8zM198.3 271.7h3.9v2.6h.1c.4-.8 1-1.5 1.8-2.1.8-.6 1.9-.9 3.2-.9 1.1 0 2 .2 2.8.5.8.4 1.4.8 1.9 1.4.5.6.8 1.3 1 2 .2.8.3 1.6.3 2.4v10.4h-4.1v-8.3c0-.5 0-1-.1-1.5 0-.6-.2-1.1-.4-1.6s-.5-.9-.9-1.2c-.4-.3-1-.5-1.7-.5s-1.3.1-1.7.3c-.5.2-.8.5-1.2.9-.3.4-.5.8-.7 1.3-.1.5-.2 1-.2 1.6v8.9h-4.1v-16.2zM217.2 262.3h4.1v25.7h-4.1v-25.7zM224.8 266.1c0-.7.2-1.2.7-1.7.5-.5 1.1-.7 1.9-.7s1.4.2 1.9.7c.5.5.8 1 .8 1.8 0 .7-.3 1.3-.8 1.8s-1.1.7-1.9.7-1.4-.2-1.9-.7c-.4-.6-.7-1.2-.7-1.9zm.6 5.6h4.1v16.3h-4.1v-16.3zM233.5 271.7h3.9v2.6h.1c.4-.8 1-1.5 1.8-2.1.8-.6 1.9-.9 3.2-.9 1.1 0 2 .2 2.8.5.8.4 1.4.8 1.9 1.4.5.6.8 1.3 1 2 .2.8.3 1.6.3 2.4v10.4h-4.1v-8.3c0-.5 0-1-.1-1.5 0-.6-.2-1.1-.4-1.6s-.5-.9-.9-1.2c-.4-.3-1-.5-1.7-.5s-1.3.1-1.7.3c-.5.2-.8.5-1.2.9-.3.4-.5.8-.7 1.3-.1.5-.2 1-.2 1.6v8.9h-4.1v-16.2zM255.6 281.3c.1 1.2.6 2.2 1.4 2.9.8.7 1.8 1 3 1 1 0 1.9-.2 2.6-.6.7-.4 1.3-.9 1.8-1.6l2.9 2.2c-1 1.2-2 2-3.2 2.5-1.2.5-2.4.7-3.7.7-1.2 0-2.4-.2-3.5-.6s-2-1-2.8-1.7c-.8-.7-1.4-1.6-1.9-2.7s-.7-2.2-.7-3.5.2-2.5.7-3.5c.5-1.1 1.1-2 1.9-2.7.8-.7 1.7-1.3 2.8-1.7s2.2-.6 3.5-.6c1.1 0 2.2.2 3.1.6.9.4 1.7 1 2.4 1.7s1.2 1.7 1.6 2.8.6 2.4.6 3.8v1.1h-12.5zm8.3-3.1c0-1.2-.4-2.1-1.1-2.8-.7-.7-1.7-1-3-1-1.2 0-2.2.4-2.9 1.1-.7.7-1.2 1.6-1.3 2.8h8.3zM283.8 281.3c.1 1.2.6 2.2 1.4 2.9.8.7 1.8 1 3 1 1 0 1.9-.2 2.6-.6.7-.4 1.3-.9 1.8-1.6l2.9 2.2c-1 1.2-2 2-3.2 2.5-1.2.5-2.4.7-3.7.7-1.2 0-2.4-.2-3.5-.6s-2-1-2.8-1.7c-.8-.7-1.4-1.6-1.9-2.7s-.7-2.2-.7-3.5.2-2.5.7-3.5c.5-1.1 1.1-2 1.9-2.7.8-.7 1.7-1.3 2.8-1.7s2.2-.6 3.5-.6c1.1 0 2.2.2 3.1.6.9.4 1.7 1 2.4 1.7s1.2 1.7 1.6 2.8.6 2.4.6 3.8v1.1h-12.5zm8.4-3.1c0-1.2-.4-2.1-1.1-2.8-.7-.7-1.7-1-3-1-1.2 0-2.2.4-2.9 1.1-.7.7-1.2 1.6-1.3 2.8h8.3zM302.9 279.2l-5.6-7.5h5l3.3 4.9 3.5-4.9h4.7l-5.6 7.5 6.6 8.8h-5l-4.2-5.8-4.3 5.8h-4.8l6.4-8.8zM320.3 274c.4-.7.9-1.3 1.8-1.9s1.8-.8 3.1-.8c1.1 0 2 .2 2.8.5s1.4.8 1.9 1.4c.5.6.8 1.3 1 2s.3 1.6.3 2.4v10.4h-4.1v-8.3c0-.5 0-1-.1-1.5 0-.6-.2-1.1-.4-1.6s-.5-.9-.9-1.2c-.4-.3-1-.5-1.7-.5s-1.3.1-1.7.3c-.5.2-.8.5-1.2.9-.3.4-.5.8-.7 1.3-.1.5-.2 1-.2 1.6v8.9h-4.1v-25.7h4.1v11.8zM334.6 266.1c0-.7.2-1.2.7-1.7s1.1-.7 1.9-.7 1.4.2 1.9.7c.5.5.8 1 .8 1.8 0 .7-.3 1.3-.8 1.8s-1.1.7-1.9.7-1.4-.2-1.9-.7-.7-1.2-.7-1.9zm.6 5.6h4.1v16.3h-4.1v-16.3zM343.3 262.3h4.1v11.5h.1c.2-.3.5-.5.8-.8.3-.3.7-.5 1.2-.8.5-.2 1-.5 1.6-.6.6-.2 1.3-.2 2-.2 1.2 0 2.2.2 3.2.7 1 .4 1.8 1 2.5 1.8s1.2 1.7 1.6 2.7c.4 1 .6 2.2.6 3.4 0 1.2-.2 2.3-.5 3.4-.4 1-.9 1.9-1.6 2.7-.7.8-1.6 1.4-2.6 1.8-1 .4-2.1.7-3.4.7-1.2 0-2.2-.2-3.2-.7-1-.5-1.8-1.2-2.4-2.2h-.1v2.4h-3.9v-25.8zm13.5 17.5c0-.6-.1-1.2-.3-1.8-.2-.6-.5-1.1-1-1.6-.4-.5-.9-.8-1.5-1.1-.6-.3-1.3-.4-2-.4s-1.4.1-2 .4c-.6.3-1.1.6-1.5 1.1s-.7 1-1 1.6c-.2.6-.3 1.2-.3 1.8 0 .6.1 1.2.3 1.8.2.6.5 1.1 1 1.6s.9.8 1.5 1.1c.6.3 1.3.4 2 .4s1.4-.1 2-.4c.6-.3 1.1-.6 1.5-1.1.4-.5.7-1 1-1.6.2-.5.3-1.1.3-1.8zM363.5 266.1c0-.7.2-1.2.7-1.7.5-.5 1.1-.7 1.9-.7s1.4.2 1.9.7c.5.5.8 1 .8 1.8 0 .7-.3 1.3-.8 1.8s-1.1.7-1.9.7-1.4-.2-1.9-.7c-.5-.6-.7-1.2-.7-1.9zm.6 5.6h4.1v16.3h-4.1v-16.3zM370.9 275.1v-3.5h3.4v-4.7h4.1v4.7h4.5v3.5h-4.5v7.1c0 .8.2 1.5.5 1.9.3.5.9.7 1.8.7.4 0 .8 0 1.2-.1.4-.1.8-.2 1-.4v3.4c-.4.2-1 .3-1.6.4-.6.1-1.2.1-1.6.1-1.1 0-2-.1-2.7-.4-.7-.2-1.2-.6-1.6-1.1-.4-.5-.7-1.1-.8-1.8-.1-.7-.2-1.6-.2-2.5v-7.5h-3.5zM385.6 266.1c0-.7.2-1.2.7-1.7.5-.5 1.1-.7 1.9-.7s1.4.2 1.9.7c.5.5.8 1 .8 1.8 0 .7-.3 1.3-.8 1.8s-1.1.7-1.9.7-1.4-.2-1.9-.7c-.5-.6-.7-1.2-.7-1.9zm.6 5.6h4.1v16.3h-4.1v-16.3zM393.4 279.8c0-1.3.2-2.5.7-3.5.5-1.1 1.1-2 1.9-2.7.8-.7 1.7-1.3 2.8-1.7s2.2-.6 3.5-.6c1.2 0 2.4.2 3.5.6s2 1 2.8 1.7c.8.7 1.4 1.6 1.9 2.7s.7 2.2.7 3.5-.2 2.5-.7 3.5c-.5 1.1-1.1 2-1.9 2.7-.8.7-1.7 1.3-2.8 1.7s-2.2.6-3.5.6c-1.2 0-2.4-.2-3.5-.6s-2-1-2.8-1.7c-.8-.7-1.4-1.6-1.9-2.7-.4-1-.7-2.2-.7-3.5zm4.1 0c0 .6.1 1.2.3 1.8.2.6.5 1.1 1 1.6.4.5.9.8 1.5 1.1.6.3 1.3.4 2 .4s1.4-.1 2-.4c.6-.3 1.1-.6 1.5-1.1s.7-1 1-1.6c.2-.6.3-1.2.3-1.8 0-.6-.1-1.2-.3-1.8-.2-.6-.5-1.1-1-1.6s-.9-.8-1.5-1.1c-.6-.3-1.3-.4-2-.4s-1.4.1-2 .4c-.6.3-1.1.6-1.5 1.1-.4.5-.7 1-1 1.6-.2.6-.3 1.2-.3 1.8zM414.3 271.7h3.9v2.6h.1c.4-.8 1-1.5 1.8-2.1s1.9-.9 3.2-.9c1.1 0 2 .2 2.8.5.8.4 1.4.8 1.9 1.4.5.6.8 1.3 1 2 .2.8.3 1.6.3 2.4v10.4h-4.1v-8.3c0-.5 0-1-.1-1.5 0-.6-.2-1.1-.4-1.6s-.5-.9-.9-1.2c-.4-.3-1-.5-1.7-.5s-1.3.1-1.7.3-.8.5-1.2.9c-.3.4-.5.8-.7 1.3-.1.5-.2 1-.2 1.6v8.9h-4.1v-16.2zM451.2 276.2c-.8-1.1-1.9-1.7-3.2-1.7-.5 0-1.1.1-1.6.4-.5.3-.8.7-.8 1.3 0 .5.2.9.6 1.1.4.2 1 .4 1.6.6l2.1.5s1.5.4 2.1.8c.7.4 1.2.8 1.6 1.4.4.6.6 1.5.6 2.5s-.2 1.8-.6 2.5c-.4.7-1 1.2-1.6 1.6-.7.4-1.4.7-2.3.9-.8.2-1.7.3-2.5.3-1.3 0-2.4-.2-3.5-.5-1.1-.4-2-1-2.9-2l2.7-2.5c.5.6 1.1 1.1 1.7 1.4.6.4 1.3.6 2.2.6.3 0 .6 0 .9-.1l.9-.3s.5-.4.7-.6c.2-.2.3-.5.3-.8 0-.6-.2-1-.6-1.3-.4-.3-1-.5-1.6-.7l-2.1-.5s-1.5-.4-2.1-.7c-.7-.3-1.2-.8-1.6-1.4-.4-.6-.6-1.4-.6-2.4 0-.9.2-1.7.6-2.4.4-.7.9-1.2 1.5-1.6s1.3-.7 2.1-1 1.6-.3 2.4-.3c1.1 0 2.2.2 3.2.6 1.1.4 1.9 1 2.6 1.9l-2.8 2.4zM457 271.7h3.9v2.4h.1c.6-1 1.4-1.7 2.4-2.2 1-.5 2.1-.7 3.2-.7 1.2 0 2.4.2 3.4.7 1 .4 1.8 1 2.5 1.8s1.2 1.7 1.6 2.7c.4 1 .5 2.2.5 3.4 0 1.2-.2 2.3-.6 3.4-.4 1-.9 1.9-1.6 2.7-.7.8-1.5 1.4-2.5 1.8-1 .4-2 .7-3.2.7-.8 0-1.5-.1-2-.2-.6-.2-1.1-.4-1.6-.6-.5-.2-.8-.5-1.2-.8l-.8-.8h-.1v9.8h-4v-24.1zm13.5 8.1c0-.6-.1-1.2-.3-1.8-.2-.6-.5-1.1-1-1.6s-.9-.8-1.5-1.1c-.6-.3-1.3-.4-2-.4s-1.4.1-2 .4c-.6.3-1.1.6-1.5 1.1-.4.5-.7 1-1 1.6-.2.6-.3 1.2-.3 1.8 0 .6.1 1.2.3 1.8.2.6.5 1.1 1 1.6.4.5.9.8 1.5 1.1.6.3 1.3.4 2 .4s1.4-.1 2-.4c.6-.3 1.1-.6 1.5-1.1s.7-1 1-1.6c.2-.5.3-1.1.3-1.8zM487.9 285.7h-.1c-.6.9-1.3 1.6-2.2 2-.9.4-1.9.6-3 .6-.7 0-1.5-.1-2.2-.3-.7-.2-1.3-.5-1.9-.9-.6-.4-1-.9-1.3-1.5-.3-.6-.5-1.3-.5-2.1 0-.9.2-1.6.5-2.3.3-.6.7-1.1 1.3-1.6.5-.4 1.2-.8 1.9-1 .7-.2 1.4-.4 2.2-.6.8-.1 1.5-.2 2.3-.2.8 0 1.5-.1 2.2-.1h1v-.4c0-1-.4-1.8-1.1-2.3-.7-.5-1.6-.8-2.7-.8-.9 0-1.7.2-2.4.5s-1.4.7-1.9 1.2l-2.1-2.1c.9-.9 2-1.6 3.2-2 1.2-.4 2.5-.6 3.8-.6 1.2 0 2.1.1 2.9.4.8.3 1.5.6 2 1s.9.9 1.2 1.4.5 1.1.6 1.6.2 1.1.2 1.6v10.700000000000001h-3.7v-2.2zm-.2-5h-.8c-.6 0-1.2 0-1.9.1-.7 0-1.4.2-2 .3-.6.2-1.2.4-1.6.7-.4.3-.6.8-.6 1.4 0 .4.1.7.3 1 .2.3.4.5.7.7.3.2.6.3.9.4.3.1.7.1 1 .1 1.4 0 2.4-.3 3.1-1 .7-.7 1-1.6 1-2.7v-1zM506.4 276.6c-.5-.5-1-.9-1.5-1.2-.5-.3-1.1-.4-1.6-.4-.7 0-1.4.1-2 .4-.6.3-1.1.6-1.5 1.1-.4.5-.7 1-1 1.6-.2.6-.3 1.2-.3 1.8 0 .6.1 1.2.3 1.8.2.6.5 1.1 1 1.6.4.5.9.8 1.5 1.1.6.3 1.3.4 2 .4.6 0 1.2-.1 1.8-.4.5-.3 1-.6 1.4-1.1l2.7 2.9c-.4.4-.9.8-1.4 1.1-.5.3-1.1.5-1.6.7-.5.2-1.1.3-1.6.4-.5.1-.9.1-1.3.1-1.2 0-2.4-.2-3.5-.6s-2-1-2.8-1.7c-.8-.7-1.4-1.6-1.9-2.7s-.7-2.2-.7-3.5.2-2.5.7-3.5c.5-1.1 1.1-2 1.9-2.7.8-.7 1.7-1.3 2.8-1.7s2.2-.6 3.5-.6c1 0 2.1.2 3.1.6 1.1.4 2 1 2.8 1.9l-2.8 2.6zM514.2 281.3c.1 1.2.6 2.2 1.4 2.9s1.8 1 3 1c1 0 1.9-.2 2.6-.6.7-.4 1.3-.9 1.8-1.6l2.9 2.2c-1 1.2-2 2-3.2 2.5-1.2.5-2.4.7-3.7.7-1.2 0-2.4-.2-3.5-.6s-2-1-2.8-1.7c-.8-.7-1.4-1.6-1.9-2.7s-.7-2.2-.7-3.5.2-2.5.7-3.5c.5-1.1 1.1-2 1.9-2.7.8-.7 1.7-1.3 2.8-1.7s2.2-.6 3.5-.6c1.1 0 2.2.2 3.1.6.9.4 1.7 1 2.4 1.7s1.2 1.7 1.6 2.8c.4 1.1.6 2.4.6 3.8v1.1h-12.5zm8.4-3.1c0-1.2-.4-2.1-1.1-2.8-.7-.7-1.7-1-3-1-1.2 0-2.2.4-2.9 1.1-.7.7-1.2 1.6-1.3 2.8h8.3z"/></g></svg>