<?xml version="1.0" encoding="utf-8"?>
<!-- Generator: Adobe Illustrator 17.1.0, SVG Export Plug-In . SVG Version: 6.00 Build 0)  -->
<!DOCTYPE svg PUBLIC "-//W3C//DTD SVG 1.1//EN" "http://www.w3.org/Graphics/SVG/1.1/DTD/svg11.dtd">
<svg version="1.1" id="Layer_1" xmlns="http://www.w3.org/2000/svg" xmlns:xlink="http://www.w3.org/1999/xlink" x="0px" y="0px"
	 width="644px" height="296px" viewBox="0 0 644 296" enable-background="new 0 0 644 296" xml:space="preserve">
<g>
	<path fill="#1D1D1B" d="M37.3,105.6h0.6c5.9-12.4,20.7-24.4,43.6-24.4c39.9,0,54.2,28.2,54.2,58.5v93.8H98.6v-75.2
		c0-16.4-1.2-43.6-27.2-43.6c-24.4,0-34,17.9-34,37.7v81.1H0.2V-0.6h37.1V105.6z"/>
	<path fill="#1D1D1B" d="M333.6,84.8h35.3v23.8h0.6c6.8-14.9,20.7-27.5,45.5-27.5c39.9,0,54.2,28.2,54.2,58.5v93.8H432v-75.2
		c0-16.4-1.2-43.6-27.2-43.6c-24.4,0-34,17.9-34,37.7v81.1h-37.1V84.8z"/>
	<path fill="#1D1D1B" d="M608.6,211.1H608c-10.8,17.9-30.3,26-51.1,26c-45.8,0-73.3-34-73.3-78c0-43.9,29.4-78,71.8-78
		c27.8,0,42.7,13,50.4,22.6h0.9V-0.6h37.1v233.9h-35.3V211.1z M564.3,203.7c27.2,0,43.6-21.4,43.6-44.6c0-23.2-16.4-44.6-43.6-44.6
		c-27.2,0-43.6,21.4-43.6,44.6C520.7,182.3,537.1,203.7,564.3,203.7z"/>
	<path fill="#1D1D1B" d="M275.7,211.1h-0.6c-10.8,17.9-30.3,26-51.1,26c-45.8,0-73.3-34-73.3-78c0-43.9,29.4-78,71.8-78
		c27.8,0,42.7,13,50.4,22.6h0.9V84.8h37.1v148.5h-35.3V211.1z M231.4,203.7c27.2,0,43.6-21.4,43.6-44.6c0-23.2-16.4-44.6-43.6-44.6
		c-27.2,0-43.6,21.4-43.6,44.6C187.8,182.3,204.2,203.7,231.4,203.7z"/>
</g>
<g>
	<path fill="#1D1D1B" d="M117.4,275.1v-3.5h3.4v-4.7h4.1v4.7h4.5v3.5h-4.5v7.1c0,0.8,0.2,1.5,0.5,1.9c0.3,0.5,0.9,0.7,1.8,0.7
		c0.4,0,0.8,0,1.2-0.1c0.4-0.1,0.8-0.2,1-0.4v3.4c-0.4,0.2-1,0.3-1.6,0.4c-0.6,0.1-1.2,0.1-1.6,0.1c-1.1,0-2-0.1-2.7-0.4
		c-0.7-0.2-1.2-0.6-1.6-1.1c-0.4-0.5-0.7-1.1-0.8-1.8c-0.1-0.7-0.2-1.6-0.2-2.5v-7.5H117.4z"/>
	<path fill="#1D1D1B" d="M135.9,274L135.9,274c0.4-0.7,0.9-1.3,1.8-1.9s1.8-0.8,3.1-0.8c1.1,0,2,0.2,2.8,0.5
		c0.8,0.4,1.4,0.8,1.9,1.4c0.5,0.6,0.8,1.3,1,2c0.2,0.8,0.3,1.6,0.3,2.4V288h-4.1v-8.3c0-0.5,0-1-0.1-1.5c0-0.6-0.2-1.1-0.4-1.6
		c-0.2-0.5-0.5-0.9-0.9-1.2c-0.4-0.3-1-0.5-1.7-0.5c-0.7,0-1.3,0.1-1.7,0.3c-0.5,0.2-0.8,0.5-1.2,0.9c-0.3,0.4-0.5,0.8-0.7,1.3
		c-0.1,0.5-0.2,1-0.2,1.6v8.9h-4.1v-25.7h4.1V274z"/>
	<path fill="#1D1D1B" d="M153.3,281.3c0.1,1.2,0.6,2.2,1.4,2.9c0.8,0.7,1.8,1,3,1c1,0,1.9-0.2,2.6-0.6c0.7-0.4,1.3-0.9,1.8-1.6
		l2.9,2.2c-1,1.2-2,2-3.2,2.5c-1.2,0.5-2.4,0.7-3.7,0.7c-1.2,0-2.4-0.2-3.5-0.6s-2-1-2.8-1.7c-0.8-0.7-1.4-1.6-1.9-2.7
		c-0.5-1.1-0.7-2.2-0.7-3.5s0.2-2.5,0.7-3.5c0.5-1.1,1.1-2,1.9-2.7c0.8-0.7,1.7-1.3,2.8-1.7s2.2-0.6,3.5-0.6c1.1,0,2.2,0.2,3.1,0.6
		c0.9,0.4,1.7,1,2.4,1.7c0.7,0.7,1.2,1.7,1.6,2.8s0.6,2.4,0.6,3.8v1.1H153.3z M161.6,278.2c0-1.2-0.4-2.1-1.1-2.8
		c-0.7-0.7-1.7-1-3-1c-1.2,0-2.2,0.4-2.9,1.1c-0.7,0.7-1.2,1.6-1.3,2.8H161.6z"/>
	<path fill="#1D1D1B" d="M177.4,279.8c0-1.3,0.2-2.5,0.7-3.5c0.5-1.1,1.1-2,1.9-2.7c0.8-0.7,1.7-1.3,2.8-1.7s2.2-0.6,3.5-0.6
		s2.4,0.2,3.5,0.6s2,1,2.8,1.7c0.8,0.7,1.4,1.6,1.9,2.7c0.5,1.1,0.7,2.2,0.7,3.5s-0.2,2.5-0.7,3.5c-0.5,1.1-1.1,2-1.9,2.7
		c-0.8,0.7-1.7,1.3-2.8,1.7s-2.2,0.6-3.5,0.6s-2.4-0.2-3.5-0.6s-2-1-2.8-1.7c-0.8-0.7-1.4-1.6-1.9-2.7
		C177.6,282.3,177.4,281.1,177.4,279.8z M181.5,279.8c0,0.6,0.1,1.2,0.3,1.8c0.2,0.6,0.5,1.1,1,1.6c0.4,0.5,0.9,0.8,1.5,1.1
		c0.6,0.3,1.3,0.4,2,0.4s1.4-0.1,2-0.4c0.6-0.3,1.1-0.6,1.5-1.1c0.4-0.5,0.7-1,1-1.6c0.2-0.6,0.3-1.2,0.3-1.8c0-0.6-0.1-1.2-0.3-1.8
		c-0.2-0.6-0.5-1.1-1-1.6c-0.4-0.5-0.9-0.8-1.5-1.1c-0.6-0.3-1.3-0.4-2-0.4s-1.4,0.1-2,0.4c-0.6,0.3-1.1,0.6-1.5,1.1
		c-0.4,0.5-0.7,1-1,1.6C181.6,278.6,181.5,279.2,181.5,279.8z"/>
	<path fill="#1D1D1B" d="M198.3,271.7h3.9v2.6h0.1c0.4-0.8,1-1.5,1.8-2.1c0.8-0.6,1.9-0.9,3.2-0.9c1.1,0,2,0.2,2.8,0.5
		c0.8,0.4,1.4,0.8,1.9,1.4c0.5,0.6,0.8,1.3,1,2c0.2,0.8,0.3,1.6,0.3,2.4V288h-4.1v-8.3c0-0.5,0-1-0.1-1.5c0-0.6-0.2-1.1-0.4-1.6
		c-0.2-0.5-0.5-0.9-0.9-1.2c-0.4-0.3-1-0.5-1.7-0.5c-0.7,0-1.3,0.1-1.7,0.3c-0.5,0.2-0.8,0.5-1.2,0.9c-0.3,0.4-0.5,0.8-0.7,1.3
		c-0.1,0.5-0.2,1-0.2,1.6v8.9h-4.1V271.7z"/>
	<path fill="#1D1D1B" d="M217.2,262.3h4.1V288h-4.1V262.3z"/>
	<path fill="#1D1D1B" d="M224.8,266.1c0-0.7,0.2-1.2,0.7-1.7c0.5-0.5,1.1-0.7,1.9-0.7s1.4,0.2,1.9,0.7c0.5,0.5,0.8,1,0.8,1.8
		c0,0.7-0.3,1.3-0.8,1.8c-0.5,0.5-1.1,0.7-1.9,0.7s-1.4-0.2-1.9-0.7C225.1,267.4,224.8,266.8,224.8,266.1z M225.4,271.7h4.1V288
		h-4.1V271.7z"/>
	<path fill="#1D1D1B" d="M233.5,271.7h3.9v2.6h0.1c0.4-0.8,1-1.5,1.8-2.1c0.8-0.6,1.9-0.9,3.2-0.9c1.1,0,2,0.2,2.8,0.5
		c0.8,0.4,1.4,0.8,1.9,1.4c0.5,0.6,0.8,1.3,1,2c0.2,0.8,0.3,1.6,0.3,2.4V288h-4.1v-8.3c0-0.5,0-1-0.1-1.5c0-0.6-0.2-1.1-0.4-1.6
		c-0.2-0.5-0.5-0.9-0.9-1.2c-0.4-0.3-1-0.5-1.7-0.5c-0.7,0-1.3,0.1-1.7,0.3c-0.5,0.2-0.8,0.5-1.2,0.9c-0.3,0.4-0.5,0.8-0.7,1.3
		c-0.1,0.5-0.2,1-0.2,1.6v8.9h-4.1V271.7z"/>
	<path fill="#1D1D1B" d="M255.6,281.3c0.1,1.2,0.6,2.2,1.4,2.9c0.8,0.7,1.8,1,3,1c1,0,1.9-0.2,2.6-0.6c0.7-0.4,1.3-0.9,1.8-1.6
		l2.9,2.2c-1,1.2-2,2-3.2,2.5c-1.2,0.5-2.4,0.7-3.7,0.7c-1.2,0-2.4-0.2-3.5-0.6s-2-1-2.8-1.7c-0.8-0.7-1.4-1.6-1.9-2.7
		c-0.5-1.1-0.7-2.2-0.7-3.5s0.2-2.5,0.7-3.5c0.5-1.1,1.1-2,1.9-2.7c0.8-0.7,1.7-1.3,2.8-1.7s2.2-0.6,3.5-0.6c1.1,0,2.2,0.2,3.1,0.6
		c0.9,0.4,1.7,1,2.4,1.7c0.7,0.7,1.2,1.7,1.6,2.8s0.6,2.4,0.6,3.8v1.1H255.6z M263.9,278.2c0-1.2-0.4-2.1-1.1-2.8
		c-0.7-0.7-1.7-1-3-1c-1.2,0-2.2,0.4-2.9,1.1c-0.7,0.7-1.2,1.6-1.3,2.8H263.9z"/>
	<path fill="#1D1D1B" d="M283.8,281.3c0.1,1.2,0.6,2.2,1.4,2.9c0.8,0.7,1.8,1,3,1c1,0,1.9-0.2,2.6-0.6c0.7-0.4,1.3-0.9,1.8-1.6
		l2.9,2.2c-1,1.2-2,2-3.2,2.5c-1.2,0.5-2.4,0.7-3.7,0.7c-1.2,0-2.4-0.2-3.5-0.6s-2-1-2.8-1.7c-0.8-0.7-1.4-1.6-1.9-2.7
		c-0.5-1.1-0.7-2.2-0.7-3.5s0.2-2.5,0.7-3.5c0.5-1.1,1.1-2,1.9-2.7c0.8-0.7,1.7-1.3,2.8-1.7s2.2-0.6,3.5-0.6c1.1,0,2.2,0.2,3.1,0.6
		c0.9,0.4,1.7,1,2.4,1.7c0.7,0.7,1.2,1.7,1.6,2.8s0.6,2.4,0.6,3.8v1.1H283.8z M292.2,278.2c0-1.2-0.4-2.1-1.1-2.8
		c-0.7-0.7-1.7-1-3-1c-1.2,0-2.2,0.4-2.9,1.1c-0.7,0.7-1.2,1.6-1.3,2.8H292.2z"/>
	<path fill="#1D1D1B" d="M302.9,279.2l-5.6-7.5h5l3.3,4.9l3.5-4.9h4.7l-5.6,7.5l6.6,8.8h-5l-4.2-5.8l-4.3,5.8h-4.8L302.9,279.2z"/>
	<path fill="#1D1D1B" d="M320.3,274L320.3,274c0.4-0.7,0.9-1.3,1.8-1.9s1.8-0.8,3.1-0.8c1.1,0,2,0.2,2.8,0.5s1.4,0.8,1.9,1.4
		c0.5,0.6,0.8,1.3,1,2s0.3,1.6,0.3,2.4V288h-4.1v-8.3c0-0.5,0-1-0.1-1.5c0-0.6-0.2-1.1-0.4-1.6s-0.5-0.9-0.9-1.2
		c-0.4-0.3-1-0.5-1.7-0.5c-0.7,0-1.3,0.1-1.7,0.3c-0.5,0.2-0.8,0.5-1.2,0.9c-0.3,0.4-0.5,0.8-0.7,1.3c-0.1,0.5-0.2,1-0.2,1.6v8.9
		h-4.1v-25.7h4.1V274z"/>
	<path fill="#1D1D1B" d="M334.6,266.1c0-0.7,0.2-1.2,0.7-1.7s1.1-0.7,1.9-0.7s1.4,0.2,1.9,0.7c0.5,0.5,0.8,1,0.8,1.8
		c0,0.7-0.3,1.3-0.8,1.8c-0.5,0.5-1.1,0.7-1.9,0.7s-1.4-0.2-1.9-0.7S334.6,266.8,334.6,266.1z M335.2,271.7h4.1V288h-4.1V271.7z"/>
	<path fill="#1D1D1B" d="M343.3,262.3h4.1v11.5h0.1c0.2-0.3,0.5-0.5,0.8-0.8c0.3-0.3,0.7-0.5,1.2-0.8c0.5-0.2,1-0.5,1.6-0.6
		c0.6-0.2,1.3-0.2,2-0.2c1.2,0,2.2,0.2,3.2,0.7c1,0.4,1.8,1,2.5,1.8c0.7,0.8,1.2,1.7,1.6,2.7c0.4,1,0.6,2.2,0.6,3.4
		c0,1.2-0.2,2.3-0.5,3.4c-0.4,1-0.9,1.9-1.6,2.7c-0.7,0.8-1.6,1.4-2.6,1.8c-1,0.4-2.1,0.7-3.4,0.7c-1.2,0-2.2-0.2-3.2-0.7
		c-1-0.5-1.8-1.2-2.4-2.2h-0.1v2.4h-3.9V262.3z M356.8,279.8c0-0.6-0.1-1.2-0.3-1.8c-0.2-0.6-0.5-1.1-1-1.6
		c-0.4-0.5-0.9-0.8-1.5-1.1c-0.6-0.3-1.3-0.4-2-0.4s-1.4,0.1-2,0.4c-0.6,0.3-1.1,0.6-1.5,1.1s-0.7,1-1,1.6c-0.2,0.6-0.3,1.2-0.3,1.8
		c0,0.6,0.1,1.2,0.3,1.8c0.2,0.6,0.5,1.1,1,1.6s0.9,0.8,1.5,1.1c0.6,0.3,1.3,0.4,2,0.4s1.4-0.1,2-0.4c0.6-0.3,1.1-0.6,1.5-1.1
		c0.4-0.5,0.7-1,1-1.6C356.7,281.1,356.8,280.5,356.8,279.8z"/>
	<path fill="#1D1D1B" d="M363.5,266.1c0-0.7,0.2-1.2,0.7-1.7c0.5-0.5,1.1-0.7,1.9-0.7s1.4,0.2,1.9,0.7c0.5,0.5,0.8,1,0.8,1.8
		c0,0.7-0.3,1.3-0.8,1.8c-0.5,0.5-1.1,0.7-1.9,0.7s-1.4-0.2-1.9-0.7C363.7,267.4,363.5,266.8,363.5,266.1z M364.1,271.7h4.1V288
		h-4.1V271.7z"/>
	<path fill="#1D1D1B" d="M370.9,275.1v-3.5h3.4v-4.7h4.1v4.7h4.5v3.5h-4.5v7.1c0,0.8,0.2,1.5,0.5,1.9c0.3,0.5,0.9,0.7,1.8,0.7
		c0.4,0,0.8,0,1.2-0.1c0.4-0.1,0.8-0.2,1-0.4v3.4c-0.4,0.2-1,0.3-1.6,0.4c-0.6,0.1-1.2,0.1-1.6,0.1c-1.1,0-2-0.1-2.7-0.4
		c-0.7-0.2-1.2-0.6-1.6-1.1c-0.4-0.5-0.7-1.1-0.8-1.8c-0.1-0.7-0.2-1.6-0.2-2.5v-7.5H370.9z"/>
	<path fill="#1D1D1B" d="M385.6,266.1c0-0.7,0.2-1.2,0.7-1.7c0.5-0.5,1.1-0.7,1.9-0.7s1.4,0.2,1.9,0.7c0.5,0.5,0.8,1,0.8,1.8
		c0,0.7-0.3,1.3-0.8,1.8c-0.5,0.5-1.1,0.7-1.9,0.7s-1.4-0.2-1.9-0.7C385.8,267.4,385.6,266.8,385.6,266.1z M386.2,271.7h4.1V288
		h-4.1V271.7z"/>
	<path fill="#1D1D1B" d="M393.4,279.8c0-1.3,0.2-2.5,0.7-3.5c0.5-1.1,1.1-2,1.9-2.7c0.8-0.7,1.7-1.3,2.8-1.7s2.2-0.6,3.5-0.6
		c1.2,0,2.4,0.2,3.5,0.6s2,1,2.8,1.7c0.8,0.7,1.4,1.6,1.9,2.7c0.5,1.1,0.7,2.2,0.7,3.5s-0.2,2.5-0.7,3.5c-0.5,1.1-1.1,2-1.9,2.7
		c-0.8,0.7-1.7,1.3-2.8,1.7s-2.2,0.6-3.5,0.6c-1.2,0-2.4-0.2-3.5-0.6s-2-1-2.8-1.7c-0.8-0.7-1.4-1.6-1.9-2.7
		C393.7,282.3,393.4,281.1,393.4,279.8z M397.5,279.8c0,0.6,0.1,1.2,0.3,1.8c0.2,0.6,0.5,1.1,1,1.6c0.4,0.5,0.9,0.8,1.5,1.1
		c0.6,0.3,1.3,0.4,2,0.4s1.4-0.1,2-0.4c0.6-0.3,1.1-0.6,1.5-1.1s0.7-1,1-1.6c0.2-0.6,0.3-1.2,0.3-1.8c0-0.6-0.1-1.2-0.3-1.8
		c-0.2-0.6-0.5-1.1-1-1.6s-0.9-0.8-1.5-1.1c-0.6-0.3-1.3-0.4-2-0.4s-1.4,0.1-2,0.4c-0.6,0.3-1.1,0.6-1.5,1.1c-0.4,0.5-0.7,1-1,1.6
		C397.6,278.6,397.5,279.2,397.5,279.8z"/>
	<path fill="#1D1D1B" d="M414.3,271.7h3.9v2.6h0.1c0.4-0.8,1-1.5,1.8-2.1s1.9-0.9,3.2-0.9c1.1,0,2,0.2,2.8,0.5
		c0.8,0.4,1.4,0.8,1.9,1.4c0.5,0.6,0.8,1.3,1,2c0.2,0.8,0.3,1.6,0.3,2.4V288h-4.1v-8.3c0-0.5,0-1-0.1-1.5c0-0.6-0.2-1.1-0.4-1.6
		c-0.2-0.5-0.5-0.9-0.9-1.2c-0.4-0.3-1-0.5-1.7-0.5c-0.7,0-1.3,0.1-1.7,0.3s-0.8,0.5-1.2,0.9c-0.3,0.4-0.5,0.8-0.7,1.3
		c-0.1,0.5-0.2,1-0.2,1.6v8.9h-4.1V271.7z"/>
	<path fill="#1D1D1B" d="M451.2,276.2c-0.8-1.1-1.9-1.7-3.2-1.7c-0.5,0-1.1,0.1-1.6,0.4c-0.5,0.3-0.8,0.7-0.8,1.3
		c0,0.5,0.2,0.9,0.6,1.1c0.4,0.2,1,0.4,1.6,0.6c0.7,0.2,1.4,0.3,2.1,0.5s1.5,0.4,2.1,0.8c0.7,0.4,1.2,0.8,1.6,1.4
		c0.4,0.6,0.6,1.5,0.6,2.5c0,1-0.2,1.8-0.6,2.5c-0.4,0.7-1,1.2-1.6,1.6c-0.7,0.4-1.4,0.7-2.3,0.9c-0.8,0.2-1.7,0.3-2.5,0.3
		c-1.3,0-2.4-0.2-3.5-0.5c-1.1-0.4-2-1-2.9-2l2.7-2.5c0.5,0.6,1.1,1.1,1.7,1.4c0.6,0.4,1.3,0.6,2.2,0.6c0.3,0,0.6,0,0.9-0.1
		c0.3-0.1,0.6-0.2,0.9-0.3s0.5-0.4,0.7-0.6c0.2-0.2,0.3-0.5,0.3-0.8c0-0.6-0.2-1-0.6-1.3c-0.4-0.3-1-0.5-1.6-0.7
		c-0.7-0.2-1.4-0.3-2.1-0.5s-1.5-0.4-2.1-0.7c-0.7-0.3-1.2-0.8-1.6-1.4c-0.4-0.6-0.6-1.4-0.6-2.4c0-0.9,0.2-1.7,0.6-2.4
		c0.4-0.7,0.9-1.2,1.5-1.6s1.3-0.7,2.1-1s1.6-0.3,2.4-0.3c1.1,0,2.2,0.2,3.2,0.6c1.1,0.4,1.9,1,2.6,1.9L451.2,276.2z"/>
	<path fill="#1D1D1B" d="M457,271.7h3.9v2.4h0.1c0.6-1,1.4-1.7,2.4-2.2c1-0.5,2.1-0.7,3.2-0.7c1.2,0,2.4,0.2,3.4,0.7
		c1,0.4,1.8,1,2.5,1.8s1.2,1.7,1.6,2.7c0.4,1,0.5,2.2,0.5,3.4c0,1.2-0.2,2.3-0.6,3.4c-0.4,1-0.9,1.9-1.6,2.7
		c-0.7,0.8-1.5,1.4-2.5,1.8c-1,0.4-2,0.7-3.2,0.7c-0.8,0-1.5-0.1-2-0.2c-0.6-0.2-1.1-0.4-1.6-0.6c-0.5-0.2-0.8-0.5-1.2-0.8
		c-0.3-0.3-0.6-0.6-0.8-0.8H461v9.8H457V271.7z M470.5,279.8c0-0.6-0.1-1.2-0.3-1.8c-0.2-0.6-0.5-1.1-1-1.6s-0.9-0.8-1.5-1.1
		c-0.6-0.3-1.3-0.4-2-0.4s-1.4,0.1-2,0.4c-0.6,0.3-1.1,0.6-1.5,1.1c-0.4,0.5-0.7,1-1,1.6c-0.2,0.6-0.3,1.2-0.3,1.8
		c0,0.6,0.1,1.2,0.3,1.8c0.2,0.6,0.5,1.1,1,1.6c0.4,0.5,0.9,0.8,1.5,1.1c0.6,0.3,1.3,0.4,2,0.4s1.4-0.1,2-0.4
		c0.6-0.3,1.1-0.6,1.5-1.1s0.7-1,1-1.6C470.4,281.1,470.5,280.5,470.5,279.8z"/>
	<path fill="#1D1D1B" d="M487.9,285.7h-0.1c-0.6,0.9-1.3,1.6-2.2,2c-0.9,0.4-1.9,0.6-3,0.6c-0.7,0-1.5-0.1-2.2-0.3
		c-0.7-0.2-1.3-0.5-1.9-0.9c-0.6-0.4-1-0.9-1.3-1.5c-0.3-0.6-0.5-1.3-0.5-2.1c0-0.9,0.2-1.6,0.5-2.3c0.3-0.6,0.7-1.1,1.3-1.6
		c0.5-0.4,1.2-0.8,1.9-1c0.7-0.2,1.4-0.4,2.2-0.6c0.8-0.1,1.5-0.2,2.3-0.2c0.8,0,1.5-0.1,2.2-0.1h1v-0.4c0-1-0.4-1.8-1.1-2.3
		c-0.7-0.5-1.6-0.8-2.7-0.8c-0.9,0-1.7,0.2-2.4,0.5s-1.4,0.7-1.9,1.2l-2.1-2.1c0.9-0.9,2-1.6,3.2-2c1.2-0.4,2.5-0.6,3.8-0.6
		c1.2,0,2.1,0.1,2.9,0.4c0.8,0.3,1.5,0.6,2,1s0.9,0.9,1.2,1.4s0.5,1.1,0.6,1.6s0.2,1.1,0.2,1.6c0,0.5,0,1,0,1.3v9.4h-3.7V285.7z
		 M487.7,280.7h-0.8c-0.6,0-1.2,0-1.9,0.1c-0.7,0-1.4,0.2-2,0.3c-0.6,0.2-1.2,0.4-1.6,0.7c-0.4,0.3-0.6,0.8-0.6,1.4
		c0,0.4,0.1,0.7,0.3,1c0.2,0.3,0.4,0.5,0.7,0.7c0.3,0.2,0.6,0.3,0.9,0.4c0.3,0.1,0.7,0.1,1,0.1c1.4,0,2.4-0.3,3.1-1
		c0.7-0.7,1-1.6,1-2.7V280.7z"/>
	<path fill="#1D1D1B" d="M506.4,276.6c-0.5-0.5-1-0.9-1.5-1.2c-0.5-0.3-1.1-0.4-1.6-0.4c-0.7,0-1.4,0.1-2,0.4
		c-0.6,0.3-1.1,0.6-1.5,1.1c-0.4,0.5-0.7,1-1,1.6c-0.2,0.6-0.3,1.2-0.3,1.8c0,0.6,0.1,1.2,0.3,1.8c0.2,0.6,0.5,1.1,1,1.6
		c0.4,0.5,0.9,0.8,1.5,1.1c0.6,0.3,1.3,0.4,2,0.4c0.6,0,1.2-0.1,1.8-0.4c0.5-0.3,1-0.6,1.4-1.1l2.7,2.9c-0.4,0.4-0.9,0.8-1.4,1.1
		c-0.5,0.3-1.1,0.5-1.6,0.7c-0.5,0.2-1.1,0.3-1.6,0.4c-0.5,0.1-0.9,0.1-1.3,0.1c-1.2,0-2.4-0.2-3.5-0.6s-2-1-2.8-1.7
		c-0.8-0.7-1.4-1.6-1.9-2.7c-0.5-1.1-0.7-2.2-0.7-3.5s0.2-2.5,0.7-3.5c0.5-1.1,1.1-2,1.9-2.7c0.8-0.7,1.7-1.3,2.8-1.7
		s2.2-0.6,3.5-0.6c1,0,2.1,0.2,3.1,0.6c1.1,0.4,2,1,2.8,1.9L506.4,276.6z"/>
	<path fill="#1D1D1B" d="M514.2,281.3c0.1,1.2,0.6,2.2,1.4,2.9s1.8,1,3,1c1,0,1.9-0.2,2.6-0.6c0.7-0.4,1.3-0.9,1.8-1.6l2.9,2.2
		c-1,1.2-2,2-3.2,2.5c-1.2,0.5-2.4,0.7-3.7,0.7c-1.2,0-2.4-0.2-3.5-0.6s-2-1-2.8-1.7c-0.8-0.7-1.4-1.6-1.9-2.7
		c-0.5-1.1-0.7-2.2-0.7-3.5s0.2-2.5,0.7-3.5c0.5-1.1,1.1-2,1.9-2.7c0.8-0.7,1.7-1.3,2.8-1.7s2.2-0.6,3.5-0.6c1.1,0,2.2,0.2,3.1,0.6
		c0.9,0.4,1.7,1,2.4,1.7s1.2,1.7,1.6,2.8c0.4,1.1,0.6,2.4,0.6,3.8v1.1H514.2z M522.6,278.2c0-1.2-0.4-2.1-1.1-2.8
		c-0.7-0.7-1.7-1-3-1c-1.2,0-2.2,0.4-2.9,1.1c-0.7,0.7-1.2,1.6-1.3,2.8H522.6z"/>
</g>
<g>
</g>
<g>
</g>
<g>
</g>
<g>
</g>
<g>
</g>
<g>
</g>
<g>
</g>
<g>
</g>
<g>
</g>
<g>
</g>
<g>
</g>
<g>
</g>
<g>
</g>
<g>
</g>
<g>
</g>
</svg>
