<?xml version="1.0" encoding="utf-8"?>
<!-- Generator: Adobe Illustrator 16.0.0, SVG Export Plug-In . SVG Version: 6.00 Build 0)  -->
<!DOCTYPE svg PUBLIC "-//W3C//DTD SVG 1.1//EN" "http://www.w3.org/Graphics/SVG/1.1/DTD/svg11.dtd">
<svg version="1.1" id="Layer_1" xmlns="http://www.w3.org/2000/svg" xmlns:xlink="http://www.w3.org/1999/xlink" x="0px" y="0px"
	 width="532px" height="214.307px" viewBox="0 0 532 214.307" enable-background="new 0 0 532 214.307" xml:space="preserve">
<g>
	<path d="M50.211,99.352h0.47c4.469-9.406,15.757-18.578,33.159-18.578c30.337,0,41.154,21.4,41.154,44.447v71.256h-28.22v-57.146
		c0-12.464-0.941-33.158-20.695-33.158c-18.578,0-25.868,13.639-25.868,28.689v61.615H21.99V18.69h28.221V99.352z"/>
	<path d="M275.442,83.596h26.81v18.107h0.471c5.173-11.288,15.756-20.93,34.569-20.93c30.337,0,41.154,21.4,41.154,44.447v71.256
		h-28.22v-57.146c0-12.464-0.941-33.158-20.695-33.158c-18.578,0-25.868,13.639-25.868,28.689v61.615h-28.221V83.596z"/>
	<path d="M484.383,179.544h-0.471c-8.23,13.64-23.046,19.755-38.803,19.755c-34.805,0-55.734-25.869-55.734-59.264
		c0-33.394,22.341-59.262,54.559-59.262c21.165,0,32.453,9.877,38.333,17.167h0.705V18.69h28.221v177.787h-26.81V179.544z
		 M450.754,173.901c20.694,0,33.158-16.227,33.158-33.865c0-17.637-12.464-33.863-33.158-33.863
		c-20.695,0-33.159,16.227-33.159,33.863C417.595,157.674,430.059,173.901,450.754,173.901z"/>
	<path d="M231.383,179.544h-0.471c-8.23,13.64-23.046,19.755-38.803,19.755c-34.805,0-55.734-25.869-55.734-59.264
		c0-33.394,22.341-59.262,54.559-59.262c21.165,0,32.453,9.877,38.333,17.167h0.705V83.596h28.221v112.881h-26.81V179.544z
		 M197.754,173.901c20.694,0,33.158-16.227,33.158-33.865c0-17.637-12.464-33.863-33.158-33.863
		c-20.695,0-33.159,16.227-33.159,33.863C164.595,157.674,177.059,173.901,197.754,173.901z"/>
</g>
</svg>
